Coordinates
version=1
nRows=28
nColumns=33
inDegrees=yes

Units are S.I. units (second, meters, Newtons, ...)
Angles are in degrees.

endheader
time	ground_thorax_rot_x	ground_thorax_rot_y	ground_thorax_rot_z	ground_thorax_tx	ground_thorax_ty	ground_thorax_tz	clav_prot_r	clav_elev_r	scapula_abduction_r	scapula_elevation_r	scapula_upward_rot_r	scapula_winging_r	shoulder_elv_r	plane_of_elev_r	axial_rot_r	elbow_flexion_r	pro_sup_r	wrist_flex_r	wrist_dev_r	clav_prot_l	clav_elev_l	scapula_abduction_l	scapula_elevation_l	scapula_upward_rot_l	scapula_winging_l	shoulder_elv_l	plane_of_elev_l	axial_rot_l	elbow_flexion_l	pro_sup_l	wrist_flex_l	wrist_dev_l	
6.3500	-41.360785	-8.973432	6.240392	-232.908473	859.546358	-5.684278	9.743389	-45.000000	33.334120	-45.000000	-44.999991	3499.332620	-2270.816771	151.155246	-88.912633	13.095710	32.491019	18.465733	7.210121	15.422013	38.277313	-34.977661	-45.000000	-45.000000	-2435.431369	-459.076979	141.124593	156.881260	10.435817	38.083851	8.486281	-22.437235	
6.3600	-41.285867	-8.797420	6.200275	-233.333604	861.390791	-5.824566	9.808011	-45.000000	33.439769	-45.000000	-44.999984	3499.270237	-2270.710899	151.040977	-89.455473	13.247611	33.599316	18.438891	7.074751	15.235681	38.253606	-34.991750	-45.000000	-45.000000	-2435.288939	-458.999293	141.142523	156.580936	10.520838	37.744142	8.419360	-22.471047	
6.3700	-41.217664	-8.594640	6.142783	-233.683042	863.186675	-5.959892	9.856940	-45.000000	33.534202	-45.000000	-44.999971	3499.209657	-2270.618319	150.909713	-90.045903	13.390250	34.652419	18.410733	6.926122	14.978948	38.256922	-35.039064	-45.000000	-45.000000	-2435.124275	-458.923413	141.134196	156.250763	10.608629	37.436873	8.331456	-22.517991	
6.3800	-41.144802	-8.452205	6.123506	-233.865640	864.876892	-6.082815	9.914591	-45.000000	33.631134	-45.000000	-44.999947	3499.160984	-2270.512449	150.786730	-90.493336	13.522873	35.613141	18.378241	6.794657	14.864547	38.236786	-35.063438	-45.000000	-45.000000	-2434.998972	-458.853525	141.153064	155.990542	10.685648	37.209277	8.289369	-22.550529	
6.3900	-41.074132	-8.328740	6.115961	-233.874392	866.455104	-6.193750	9.976839	-45.000000	33.723265	-45.000000	-44.999905	3499.116072	-2270.409037	150.653398	-90.871580	13.644805	36.482494	18.338448	6.663371	14.806052	38.216001	-35.091031	-45.000000	-45.000000	-2434.891797	-458.780157	141.171044	155.756174	10.765419	37.053521	8.264241	-22.578629	
6.4000	-41.005360	-8.251531	6.140751	-233.691081	867.907625	-6.291571	10.026011	-45.000000	33.816071	-45.000000	-44.999831	3499.098848	-2270.281657	150.540016	-91.177710	13.768007	37.269813	18.316672	6.554407	14.794719	38.190285	-35.123161	-45.000000	-45.000000	-2434.792259	-458.718184	141.206002	155.556769	10.856390	36.966689	8.244083	-22.604607	
6.4100	-40.946146	-8.187229	6.176285	-233.321005	869.235304	-6.376380	10.076776	-45.000000	33.912057	-45.000000	-44.999697	3499.082844	-2270.163642	150.421653	-91.451118	13.890919	37.999194	18.294418	6.443552	14.796214	38.169063	-35.160459	-45.000000	-45.000000	-2434.708123	-458.639838	141.232513	155.377244	10.951175	36.938680	8.222509	-22.625038	
6.4200	-40.899550	-8.149602	6.230473	-232.780491	870.446088	-6.448157	10.119298	-45.000000	34.008561	-45.000000	-44.999457	3499.094012	-2270.037317	150.322547	-91.711109	14.016489	38.705049	18.295259	6.351172	14.783076	38.144830	-35.196100	-45.000000	-44.999999	-2434.631969	-458.545503	141.256028	155.214027	11.051813	36.956316	8.190538	-22.649292	
6.4300	-40.867038	-8.118909	6.286226	-232.086447	871.549805	-6.505843	10.167305	-45.000000	34.114808	-45.000000	-44.999027	3499.099133	-2269.935966	150.213904	-91.963107	14.138881	39.416938	18.288525	6.247822	14.754213	38.123464	-35.214205	-45.000000	-44.999998	-2434.584433	-458.412617	141.258433	155.078450	11.143910	37.015632	8.151396	-22.664477	
6.4400	-40.846753	-8.113934	6.349621	-231.256380	872.558227	-6.547976	10.223415	-45.000000	34.225625	-45.000000	-44.998256	3499.125505	-2269.832729	150.113000	-92.206486	14.258911	40.159180	18.301561	6.159935	14.707032	38.089026	-35.211112	-45.000000	-44.999997	-2434.554202	-458.254304	141.248873	154.976916	11.236372	37.118838	8.112137	-22.689328	
6.4500	-40.844888	-8.101173	6.405917	-230.308262	873.486206	-6.573387	10.286352	-45.000000	34.345959	-45.000000	-44.996878	3499.138391	-2269.764509	149.999191	-92.455893	14.378452	40.954748	18.302554	6.056770	14.641377	38.059782	-35.226214	-45.000000	-44.999995	-2434.539188	-458.082836	141.228451	154.913431	11.315005	37.277296	8.066368	-22.708207	
6.4600	-40.859916	-8.101614	6.463561	-229.259899	874.351113	-6.582047	10.347755	-45.000000	34.466262	-45.000000	-44.994402	3499.173491	-2269.694873	149.897033	-92.708263	14.497920	41.819440	18.317784	5.964925	14.576004	38.026690	-35.263877	-45.000000	-44.999991	-2434.523134	-457.917977	141.214360	154.878732	11.391597	37.501238	8.016340	-22.735991	
6.4700	-40.888760	-8.095416	6.519828	-228.127897	875.173115	-6.575603	10.394377	-45.000000	34.591032	-45.000000	-44.989989	3499.199948	-2269.632742	149.792919	-92.970422	14.632946	42.769023	18.323650	5.859281	14.516672	38.011033	-35.361623	-45.000000	-44.999984	-2434.491536	-457.784098	141.211201	154.878667	11.467716	37.800527	7.946235	-22.755175	
6.4800	-40.928671	-8.093985	6.573378	-226.926408	875.974076	-6.557604	10.426493	-45.000000	34.709839	-45.000000	-44.982020	3499.248792	-2269.546208	149.700175	-93.242308	14.779204	43.803901	18.343094	5.762215	14.482429	38.000868	-35.496177	-45.000000	-44.999971	-2434.440632	-457.670500	141.211634	154.901429	11.554169	38.178893	7.865688	-22.784114	
6.4900	-40.978843	-8.069506	6.620420	-225.666128	876.777666	-6.533137	10.443134	-45.000000	34.819851	-45.000000	-44.967924	3499.282965	-2269.453799	149.598438	-93.532852	14.949740	44.933004	18.351785	5.651155	14.471251	38.009993	-35.699162	-45.000000	-44.999948	-2434.363450	-457.586917	141.210856	154.951568	11.643008	38.641401	7.767567	-22.807587	
6.5000	-41.034362	-8.029623	6.652005	-224.353634	877.608202	-6.508125	10.449357	-45.000000	34.914864	-45.000000	-44.942176	3499.323448	-2269.340580	149.486375	-93.842798	15.125117	46.145108	18.357149	5.536268	14.485096	38.024703	-35.916120	-45.000000	-44.999907	-2434.276396	-457.493155	141.186385	155.020235	11.736267	39.181696	7.663227	-22.838782	
6.5100	-41.088666	-7.966880	6.666329	-222.991362	878.489940	-6.488244	10.451772	-45.000000	35.004725	-45.000000	-44.897446	3499.346855	-2269.211379	149.349770	-94.169374	15.317474	47.437091	18.349698	5.409442	14.510208	38.047431	-36.158999	-45.000000	-44.999833	-2434.173178	-457.398372	141.137485	155.125240	11.837297	39.792274	7.549088	-22.870263	
6.5200	-41.141112	-7.894050	6.658690	-221.577998	879.445784	-6.477825	10.451652	-45.000000	35.106196	-45.000000	-44.813432	3499.377763	-2269.067360	149.210455	-94.506496	15.503610	48.786497	18.338435	5.283520	14.538711	38.064794	-36.383285	-45.000000	-44.999701	-2434.074247	-457.268983	141.060090	155.272452	11.942259	40.453893	7.431752	-22.908336	
6.5300	-41.192863	-7.790958	6.622590	-220.109415	880.495707	-6.478885	10.458004	-45.000000	35.221462	-45.000000	-44.673800	3499.396655	-2268.922426	149.059768	-94.850702	15.697304	50.189994	18.317924	5.153610	14.573166	38.084456	-36.634796	-45.000000	-44.999465	-2433.963580	-457.130331	140.962611	155.466246	12.045605	41.158308	7.313967	-22.947843	
6.5400	-41.241332	-7.678160	6.563594	-218.579694	881.654789	-6.490715	10.455450	-45.000000	35.370346	-45.000000	-44.453185	3499.421275	-2268.771739	148.924165	-95.191267	15.885308	51.627091	18.293467	5.025998	14.613579	38.104091	-36.881426	-45.000000	-44.999041	-2433.853401	-456.965095	140.849900	155.712296	12.144972	41.886354	7.189337	-22.983925	
6.5500	-41.285018	-7.544291	6.474968	-216.982036	882.931623	-6.510003	10.461125	-45.000000	35.552776	-45.000000	-44.147970	3499.437450	-2268.621280	148.788654	-95.529107	16.076375	53.092350	18.263213	4.898040	14.667616	38.127495	-37.146541	-45.000000	-44.998283	-2433.730005	-456.787730	140.717954	156.005645	12.242970	42.632196	7.065055	-23.019191	
6.5600	-41.322643	-7.399249	6.362593	-215.309489	884.327209	-6.531541	10.458006	-45.000000	35.777092	-45.000000	-43.728255	3499.459385	-2268.468377	148.680639	-95.845150	16.256975	54.572865	18.231322	4.776249	14.740160	38.157173	-37.413104	-45.000000	-44.996923	-2433.601542	-456.590804	140.569529	156.352248	12.341970	43.383206	6.932555	-23.047812	
6.5700	-41.353270	-7.234348	6.223249	-213.555316	885.834826	-6.549332	10.462028	-45.000000	36.035771	-45.000000	-43.192400	3499.469675	-2268.317196	148.581456	-96.131153	16.435840	56.068160	18.194647	4.656491	14.832638	38.194624	-37.698551	-45.000000	-44.994493	-2433.460512	-456.389093	140.400933	156.750821	12.440583	44.139010	6.799342	-23.072600	
6.5800	-41.374798	-7.059866	6.067950	-211.713420	887.440348	-6.557889	10.462066	-45.000000	36.325446	-45.000000	-42.532562	3499.472514	-2268.163172	148.502601	-96.370961	16.605949	57.561484	18.152391	4.539844	14.924589	38.232531	-37.989930	-45.000000	-44.990123	-2433.317099	-456.178794	140.218214	157.216704	12.544018	44.884488	6.658306	-23.089928	
6.5900	-41.387985	-6.880808	5.900936	-209.778368	889.123523	-6.553403	10.463962	-45.000000	36.637014	-45.000000	-41.781948	3499.464236	-2268.003734	148.427201	-96.569487	16.773932	59.029454	18.101478	4.422222	14.995118	38.262656	-38.285461	-45.000000	-44.982345	-2433.177287	-455.963960	140.025304	157.754261	12.645733	45.603538	6.516231	-23.102227	
6.6000	-41.393209	-6.704302	5.730752	-207.745347	890.859523	-6.534498	10.459182	-45.000000	36.967974	-45.000000	-40.937992	3499.451863	-2267.837119	148.367803	-96.725009	16.932247	60.451273	18.047617	4.309161	15.044519	38.286034	-38.576719	-45.000000	-44.968268	-2433.045536	-455.741738	139.825575	158.362706	12.747698	46.274031	6.369076	-23.105670	
6.6100	-41.394002	-6.528261	5.557636	-205.610221	892.620592	-6.502466	10.448037	-45.000000	37.310678	-45.000000	-40.022816	3499.434523	-2267.665577	148.313597	-96.850235	17.085592	61.817512	17.992872	4.200002	15.080332	38.307160	-38.871932	-45.000000	-44.943456	-2432.918135	-455.520254	139.621365	159.026030	12.842655	46.880753	6.224573	-23.102016	
6.6200	-41.393532	-6.354835	5.386919	-203.369968	894.377149	-6.460874	10.422343	-45.000000	37.660190	-45.000000	-39.034852	3499.420487	-2267.492366	148.275759	-96.952918	17.229472	63.134709	17.943164	4.099120	15.125951	38.338379	-39.169443	-45.000000	-44.897885	-2432.793300	-455.300646	139.416139	159.724982	12.931732	47.410094	6.082066	-23.089543	
